:SAMPLES-PER-SECOND 30
:FRAME-RANGE 1-668
:FULLY-SPECIFIED
:DEGREES
335
root  2.544 38.0854 27.7504 -175.889 -12.2034 -176.19
RightUpLeg  -18.0166 -0.525381 -1.53697
RightLeg  34.9466 2.123 1.34788
RightFoot  -17.835 0.331238 7.96261
RightToes  5.38607e-012 1.2921e-014 -6.02303e-014
Spine  -0.528397 -5.20153 -4.81652
Spine1  7.24718 -4.32229 -4.88399
HEad  23.3593 -6.46424 7.94348
LeftShoulder1  1.41283 -2.06404 -20.1096
LeftArm  -9.33927 -2.90025 -11.7893
LeftForeArm  17.1427 -0.961054 -9.58607
LeftHand  -0.0376475 4.79439 3.27596
RightShoulder  0.44516 0.21582 4.54378
RightArm  -29.5078 -15.236 -4.89742
RightForeArm  59.1802 53.566 10.5094
RightHand  0.351198 -7.79696 -17.7004
LeftUpLeg  -19.7718 -3.23559 7.79588
LeftLeg  34.6451 2.90294 2.53738
LeftFoot  -18.884 -0.243738 -5.41114
LeftToes  -6.11857e-011 5.00151e-011 -2.22593e-011
336
root  2.66585 38.0223 27.755 -176.47 -11.045 -176.969
RightUpLeg  -19.2538 0.0258447 -2.37042
RightLeg  38.3645 2.9294 2.22533
RightFoot  -17.2654 0.308248 8.21113
RightToes  5.38607e-012 1.2921e-014 -6.02303e-014
Spine  0.650827 -5.89854 -4.5049
Spine1  7.48685 -4.26403 -8.44185
HEad  23.5475 -3.13461 8.46534
LeftShoulder1  1.63128 -2.41552 -22.46
LeftArm  -9.57067 -3.91193 -7.09739
LeftForeArm  17.3368 -0.311449 -9.61013
LeftHand  -0.0378313 4.87433 3.27175
RightShoulder  0.274512 0.958416 -2.47856
RightArm  -20.4479 -15.3257 -8.43074
RightForeArm  52.6884 49.5231 9.24117
RightHand  -0.0860357 -4.76607 -13.2377
LeftUpLeg  -18.7161 -1.86443 7.11984
LeftLeg  34.6448 2.54997 2.28006
LeftFoot  -19.2275 -0.266927 -5.54074
LeftToes  -6.11857e-011 5.00151e-011 -2.22593e-011
337
root  2.75285 37.9929 27.7146 -177.008 -9.08337 -177.546
RightUpLeg  -20.4267 1.15627 -3.05627
RightLeg  41.237 3.89205 3.37666
RightFoot  -16.1975 0.238949 8.2173
RightToes  5.38607e-012 1.2921e-014 -6.02303e-014
Spine  1.32502 -6.34585 -3.08086
Spine1  7.89632 -3.76296 -12.5917
HEad  23.6633 0.440554 7.79744
LeftShoulder1  1.90048 -2.92793 -24.5461
LeftArm  -9.98207 -4.26724 -3.60191
LeftForeArm  17.7193 0.675223 -9.47171
LeftHand  -0.0361734 4.95252 3.32786
RightShoulder  0.0674529 2.14737 -8.36976
RightArm  -9.84835 -13.1527 -12.7995
RightForeArm  45.6011 45.3498 8.18632
RightHand  -0.251781 -1.82045 -7.98328
LeftUpLeg  -17.4009 0.118579 6.64587
LeftLeg  34.4513 2.42243 2.17684
LeftFoot  -19.6002 -0.291644 -5.66289
LeftToes  -6.11857e-011 5.00151e-011 -2.22593e-011
338
root  2.78636 38.0337 27.6162 -177.341 -6.61124 -177.832
RightUpLeg  -21.3551 3.0687 -3.47252
RightLeg  43.022 4.61424 4.31895
RightFoot  -14.8962 0.165071 8.56724
RightToes  5.38607e-012 1.2921e-014 -6.02303e-014
Spine  1.16047 -6.54048 -0.925853
Spine1  8.74175 -2.96568 -16.3986
HEad  23.5306 4.77737 6.32477
LeftShoulder1  2.21507 -3.62122 -26.1069
LeftArm  -9.62508 -3.93324 -1.54364
LeftForeArm  17.0902 1.75744 -9.51944
LeftHand  -0.0353151 4.83663 2.98641
RightShoulder  -0.215993 3.41778 -13.422
RightArm  0.96398 -8.89126 -16.3112
RightForeArm  37.0189 40.262 7.12011
RightHand  -0.211621 1.49244 -3.71678
LeftUpLeg  -15.9864 2.24064 6.4215
LeftLeg  33.8582 2.66317 2.31307
LeftFoot  -19.6728 -0.30108 -5.74869
LeftToes  -6.11857e-011 5.00151e-011 -2.22593e-011
339
root  2.79371 38.1442 27.457 -177.22 -4.10521 -178.159
RightUpLeg  -22.1727 4.52554 -4.05099
RightLeg  43.8063 5.82684 5.6753
RightFoot  -13.5117 0.071886 8.62972
RightToes  5.38607e-012 1.2921e-014 -6.02303e-014
Spine  0.444466 -6.54537 0.751304
Spine1  9.54255 -2.32878 -18.6295
HEad  23.5055 9.43276 4.45999
LeftShoulder1  2.63583 -4.76335 -26.8266
LeftArm  -8.96646 -1.4481 -1.29457
LeftForeArm  18.1327 1.68218 -9.3857
LeftHand  -0.0371037 4.53591 2.03671
RightShoulder  -0.448956 3.82347 -16.9485
RightArm  9.09407 -1.88364 -18.9451
RightForeArm  27.4091 34.6129 6.14119
RightHand  0.0553561 4.17581 0.395775
LeftUpLeg  -14.6444 4.01038 6.08953
LeftLeg  32.5782 3.33277 2.68155
LeftFoot  -19.4211 -0.31554 -6.11089
LeftToes  -6.11857e-011 5.00151e-011 -2.22593e-011
340
root  2.76495 38.3026 27.2653 -176.787 -1.84325 -178.628
RightUpLeg  -22.7104 5.74399 -4.79079
RightLeg  43.6227 6.84255 6.66006
RightFoot  -12.4512 -0.00123561 8.60048
RightToes  5.38607e-012 1.2921e-014 -6.02303e-014
Spine  -0.743971 -6.49156 1.57104
Spine1  10.4908 -2.06916 -19.0646
HEad  23.9602 14.2533 2.43968
LeftShoulder1  3.00666 -5.81336 -27.1459
LeftArm  -7.08104 1.87007 -2.10438
LeftForeArm  18.8849 1.18625 -9.67308
LeftHand  -0.0351456 4.07694 1.2417
RightShoulder  -0.564448 3.94014 -18.6539
RightArm  11.7228 6.37464 -20.4297
RightForeArm  18.9316 27.3053 4.86165
RightHand  0.490216 6.8803 4.2709
LeftUpLeg  -13.4523 5.03183 5.44603
LeftLeg  30.8249 4.56761 3.32164
LeftFoot  -18.7225 -0.310226 -6.54271
LeftToes  -6.11857e-011 5.00151e-011 -2.22593e-011
341
root  2.69127 38.5089 27.0707 -176.285 -0.461456 -178.904
RightUpLeg  -22.4894 5.62797 -5.29653
RightLeg  42.2654 8.03102 7.48313
RightFoot  -11.658 -0.0562944 8.3086
RightToes  5.38607e-012 1.2921e-014 -6.02303e-014
Spine  -2.33353 -6.51658 2.07126
Spine1  12.4422 -2.19656 -17.9619
HEad  23.7448 18.6977 0.144067
LeftShoulder1  3.65965 -8.39239 -25.3918
LeftArm  -3.93633 7.92062 -5.30343
LeftForeArm  19.5294 0.187893 -10.1894
LeftHand  -0.0319477 3.39183 0.821477
RightShoulder  -0.604634 3.9941 -19.2155
RightArm  -1.82413 12.6646 -21.6331
RightForeArm  21.3325 19.2181 5.88198
RightHand  1.24189 9.82594 9.01103
LeftUpLeg  -12.4738 5.46858 4.88807
LeftLeg  28.8391 5.63265 3.7269
LeftFoot  -17.6746 -0.273909 -6.85768
LeftToes  -6.11857e-011 5.00151e-011 -2.22593e-011
342
root  2.60383 38.7936 26.8797 -175.568 -0.511032 -178.918
RightUpLeg  -21.681 4.33236 -5.45915
RightLeg  39.8212 9.0575 7.7606
RightFoot  -10.7966 -0.11231 8.16061
RightToes  5.38607e-012 1.2921e-014 -6.02303e-014
Spine  -3.48544 -6.72774 1.73979
Spine1  14.0942 -3.31566 -14.2748
HEad  22.6248 23.0496 -2.56377
LeftShoulder1  4.06593 -10.9134 -22.5503
LeftArm  -0.141979 14.6578 -9.94817
LeftForeArm  24.1278 -2.368 -11.0901
LeftHand  -0.0053283 2.71354 -0.422349
RightShoulder  -0.508635 2.88826 -19.195
RightArm  -27.2759 18.3107 -23.255
RightForeArm  31.3121 12.2581 6.84801
RightHand  2.03872 11.991 13.0559
LeftUpLeg  -11.7053 5.24964 4.62521
LeftLeg  26.1416 6.09819 3.61466
LeftFoot  -16.1543 -0.19107 -6.84156
LeftToes  -6.11857e-011 5.00151e-011 -2.22593e-011
343
root  2.52302 39.1352 26.7043 -174.7 -1.48224 -178.645
RightUpLeg  -20.7415 3.78339 -5.2007
RightLeg  36.8269 8.94642 6.88812
RightFoot  -9.52115 -0.199875 8.48675
RightToes  5.38607e-012 1.2921e-014 -6.02303e-014
Spine  -4.48123 -7.14424 1.16429
Spine1  15.4799 -5.03831 -9.71675
HEad  21.2425 27.8246 -5.57566
LeftShoulder1  4.15529 -12.9571 -19.2827
LeftArm  11.466 20.8275 -14.4879
LeftForeArm  22.1489 -7.93426 -12.1507
LeftHand  0.0590941 1.97274 -2.42311
RightShoulder  -0.364972 1.48871 -18.6252
RightArm  -40.715 23.899 -23.8991
RightForeArm  30.7156 8.78152 3.16075
RightHand  2.83131 13.4248 16.797
LeftUpLeg  -11.3863 5.02272 4.7658
LeftLeg  23.503 5.66397 3.09524
LeftFoot  -14.1199 -0.0830381 -6.90253
LeftToes  -6.11857e-011 5.00151e-011 -2.22593e-011
344
root  2.48048 39.503 26.5778 -173.579 -3.4375 -178.28
RightUpLeg  -19.9501 2.76208 -4.76286
RightLeg  33.6167 8.51941 5.82205
RightFoot  -7.9053 -0.336698 9.40869
RightToes  5.38607e-012 1.2921e-014 -6.02303e-014
Spine  -5.44992 -7.68695 -0.160055
Spine1  16.8432 -7.32125 -3.98812
HEad  20.1211 32.3923 -8.13258
LeftShoulder1  3.76851 -14.2903 -14.7789
LeftArm  34.8075 26.5178 -19.9099
LeftForeArm  8.38174 -17.6277 -8.25584
LeftHand  0.154286 1.16074 -4.47154
RightShoulder  -0.169282 -0.267759 -16.575
RightArm  -49.8679 29.4573 -25.4215
RightForeArm  27.915 7.35099 -0.425389
RightHand  3.78649 14.9686 20.7563
LeftUpLeg  -12.0903 3.52474 5.1524
LeftLeg  21.7134 5.22661 2.76307
LeftFoot  -11.4178 0.0632049 -7.65465
LeftToes  -6.11857e-011 5.00151e-011 -2.22593e-011
345
root  2.45049 39.8641 26.5098 -172.502 -6.22275 -177.832
RightUpLeg  -19.1593 0.533821 -4.11358
RightLeg  30.4747 8.35848 5.05765
RightFoot  -6.02468 -0.502915 9.92246
RightToes  5.38607e-012 1.2921e-014 -6.02303e-014
Spine  -5.64471 -8.14902 -1.5037
Spine1  17.1168 -9.7025 2.11268
HEad  19.6005 35.9689 -9.59994
LeftShoulder1  3.11502 -15.1223 -9.78326
LeftArm  45.7447 30.8446 -23.196
LeftForeArm  3.47454 -26.0448 -5.40801
LeftHand  0.328863 -0.0760924 -7.02723
RightShoulder  -0.0210207 -2.09859 -13.3219
RightArm  -57.5876 33.932 -26.5198
RightForeArm  25.8148 7.82425 -3.18136
RightHand  4.60041 15.9645 24.0043
LeftUpLeg  -13.5479 2.11601 5.85314
LeftLeg  20.7985 4.00722 2.08983
LeftFoot  -8.41758 0.261877 -8.27781
LeftToes  -6.11857e-011 5.00151e-011 -2.22593e-011
